<svg xmlns="http://www.w3.org/2000/svg" viewBox="0 0 400 400" width="400" height="400">
  <!-- Scooter rear wheel -->
  <circle cx="95" cy="335" r="28" fill="#2D2D2D"/>
  <circle cx="95" cy="335" r="12" fill="#777"/>
  <circle cx="95" cy="335" r="5" fill="#AAA"/>
  <!-- Scooter front wheel -->
  <circle cx="315" cy="335" r="28" fill="#2D2D2D"/>
  <circle cx="315" cy="335" r="12" fill="#777"/>
  <circle cx="315" cy="335" r="5" fill="#AAA"/>
  <!-- Scooter deck -->
  <rect x="85" y="308" width="240" height="14" rx="7" fill="#4A4A4A"/>
  <!-- Scooter stem -->
  <rect x="310" y="175" width="10" height="140" rx="5" fill="#4A4A4A"/>
  <!-- Handlebar -->
  <rect x="275" y="168" width="80" height="10" rx="5" fill="#4A4A4A"/>
  <!-- Handlebar grips -->
  <rect x="268" y="165" width="18" height="16" rx="8" fill="#2D2D2D"/>
  <rect x="344" y="165" width="18" height="16" rx="8" fill="#2D2D2D"/>
  <!-- Axolotl tail -->
  <path d="M130 285 Q100 310 75 300 Q55 288 65 268 Q72 255 85 260" fill="none" stroke="#8E44AD" stroke-width="14" stroke-linecap="round"/>
  <!-- Axolotl body -->
  <ellipse cx="195" cy="265" rx="58" ry="50" fill="#9B59B6"/>
  <!-- Axolotl head -->
  <ellipse cx="195" cy="185" rx="52" ry="45" fill="#9B59B6"/>
  <!-- Left gill 1 -->
  <path d="M148 165 Q125 145 112 128" stroke="#E8A0BF" stroke-width="5" fill="none" stroke-linecap="round"/>
  <path d="M130 150 Q122 142 118 132" stroke="#E8A0BF" stroke-width="3" fill="none" stroke-linecap="round"/>
  <path d="M125 155 Q115 150 108 142" stroke="#E8A0BF" stroke-width="3" fill="none" stroke-linecap="round"/>
  <!-- Left gill 2 -->
  <path d="M143 185 Q115 178 95 168" stroke="#E8A0BF" stroke-width="5" fill="none" stroke-linecap="round"/>
  <path d="M120 178 Q110 172 102 165" stroke="#E8A0BF" stroke-width="3" fill="none" stroke-linecap="round"/>
  <path d="M115 182 Q105 180 95 175" stroke="#E8A0BF" stroke-width="3" fill="none" stroke-linecap="round"/>
  <!-- Left gill 3 -->
  <path d="M148 205 Q120 215 100 212" stroke="#E8A0BF" stroke-width="5" fill="none" stroke-linecap="round"/>
  <path d="M125 212 Q115 218 105 218" stroke="#E8A0BF" stroke-width="3" fill="none" stroke-linecap="round"/>
  <path d="M120 208 Q110 212 100 212" stroke="#E8A0BF" stroke-width="3" fill="none" stroke-linecap="round"/>
  <!-- Right gill 1 -->
  <path d="M242 165 Q265 145 278 128" stroke="#E8A0BF" stroke-width="5" fill="none" stroke-linecap="round"/>
  <path d="M260 150 Q268 142 272 132" stroke="#E8A0BF" stroke-width="3" fill="none" stroke-linecap="round"/>
  <path d="M265 155 Q275 150 282 142" stroke="#E8A0BF" stroke-width="3" fill="none" stroke-linecap="round"/>
  <!-- Right gill 2 -->
  <path d="M247 185 Q275 178 295 168" stroke="#E8A0BF" stroke-width="5" fill="none" stroke-linecap="round"/>
  <path d="M270 178 Q280 172 288 165" stroke="#E8A0BF" stroke-width="3" fill="none" stroke-linecap="round"/>
  <path d="M275 182 Q285 180 295 175" stroke="#E8A0BF" stroke-width="3" fill="none" stroke-linecap="round"/>
  <!-- Right gill 3 -->
  <path d="M242 205 Q270 215 290 212" stroke="#E8A0BF" stroke-width="5" fill="none" stroke-linecap="round"/>
  <path d="M265 212 Q275 218 285 218" stroke="#E8A0BF" stroke-width="3" fill="none" stroke-linecap="round"/>
  <path d="M270 208 Q280 212 290 212" stroke="#E8A0BF" stroke-width="3" fill="none" stroke-linecap="round"/>
  <!-- Eyes -->
  <circle cx="175" cy="182" r="9" fill="#1A0A2E"/>
  <circle cx="215" cy="182" r="9" fill="#1A0A2E"/>
  <circle cx="178" cy="179" r="3.5" fill="white"/>
  <circle cx="218" cy="179" r="3.5" fill="white"/>
  <!-- Cheeks -->
  <ellipse cx="160" cy="200" rx="10" ry="6" fill="#D488B8" opacity="0.5"/>
  <ellipse cx="230" cy="200" rx="10" ry="6" fill="#D488B8" opacity="0.5"/>
  <!-- Smile -->
  <path d="M178 205 Q195 222 212 205" stroke="#1A0A2E" stroke-width="3" fill="none" stroke-linecap="round"/>
  <!-- Front left paw on handlebar -->
  <ellipse cx="278" cy="172" rx="14" ry="10" fill="#8E44AD"/>
  <!-- Front right paw on handlebar -->
  <ellipse cx="348" cy="172" rx="14" ry="10" fill="#8E44AD"/>
  <!-- Arms connecting body to paws -->
  <path d="M230 240 Q255 210 278 175" stroke="#9B59B6" stroke-width="16" fill="none" stroke-linecap="round"/>
  <path d="M240 250 Q290 220 348 175" stroke="#9B59B6" stroke-width="16" fill="none" stroke-linecap="round"/>
  <!-- Back feet on deck -->
  <ellipse cx="160" cy="305" rx="16" ry="9" fill="#8E44AD"/>
  <ellipse cx="220" cy="305" rx="16" ry="9" fill="#8E44AD"/>
</svg>
